<?xml version="1.0" encoding="UTF-8"?>
<svg width="1142.14" height="156.46" xmlns="http://www.w3.org/2000/svg" viewBox="0 0 1142.14 156.46">
  <g>
	<path stroke-width="0" fill="#ffffff" d="M267.48,122.72c25.4,0,42.47-17.7,42.47-44.04s-18.15-44.04-43.17-44.04c-8.65,0-20.33,3.52-27.14,13.38l-1.25,1.81-1.56-13.27h-18.26v119.9h19.56v-47.88l1.52,2.35c5.64,8.7,18.07,11.79,27.82,11.79ZM265.22,53.51c14.82,0,25.17,10.35,25.17,25.17s-10.82,25.17-25.17,25.17-25.17-10.82-25.17-25.17,10.35-25.17,25.17-25.17Z"/>
	<path stroke-width="0" fill="#ffffff" d="M397.77,46.3c-7.35-8.08-18.58-12.35-32.45-12.35-26.76,0-44.73,17.7-44.73,44.04,0,27.7,17.74,44.91,46.3,44.91,13.93,0,27.51-4.99,35.7-13.08l-12.39-12.24c-5.41,5.04-15.5,7.67-22.95,7.67-14.74,0-24.85-7.27-26.38-18.98l-.12-.94h67.14c1.43-16.72-2.06-30.21-10.1-39.04ZM340.93,69.43l.3-1.05c3.05-10.83,12.32-17.3,24.8-17.3,13.28,0,21.7,6.35,23.08,17.42l.12.93h-48.29Z"/>
	<path stroke-width="0" fill="#ffffff" d="M563.93,96.25c0-21.57-19.19-25.57-35.92-26.65-11.29-.72-16.77-4.06-16.77-10.22s6.01-9.35,16.48-9.35c8.95,0,15.51,2.25,21.14,7.29l10.74-12.63c-8.81-7.49-18.21-10.56-32.22-10.56-13.13,0-35.34,5.47-35.34,25.95s21.75,24.8,34.71,25.78c10.68.61,17.81,2.52,17.81,9.87,0,2.4-1,4.65-2.9,6.5-3.05,2.99-8.04,4.69-13.42,4.58-9.06-.17-22.74-4.79-29.44-11.52l-9.47,13.73c12.56,12.79,25.96,14.56,38.58,14.56,26.6,0,36.04-14.73,36.04-27.34Z"/>
	<path stroke-width="0" fill="#ffffff" d="M464.1,53.69c6.3,0,9.68.92,13.61,3.87,2.32-6.58,6.06-11.88,9.5-16.38-4.94-4.19-12.82-6.87-20.33-6.87-8.38,0-17.02,1.43-23.47,11.78l-1.18,1.89-1.8-11.41h-18.11v84.07h19.56v-44.39c0-14.13,8.31-22.57,22.22-22.57Z"/>
	<path stroke-width="0" fill="#ffffff" d="M626.4,122.72c25.4,0,42.47-17.7,42.47-44.04s-18.15-44.04-43.17-44.04c-8.65,0-20.33,3.52-27.14,13.38l-1.25,1.81-1.56-13.28h-18.26v119.9h19.56v-47.88l1.52,2.35c5.64,8.7,18.07,11.79,27.82,11.79ZM624.14,53.51c14.82,0,25.17,10.35,25.17,25.17s-10.82,25.17-25.17,25.17-25.17-10.82-25.17-25.17,10.35-25.17,25.17-25.17Z"/>
	<path stroke-width="0" fill="#ffffff" d="M756.69,46.3c-7.36-8.08-18.58-12.35-32.45-12.35-26.76,0-44.73,17.7-44.73,44.04,0,27.7,17.74,44.91,46.3,44.91,13.93,0,27.51-4.99,35.69-13.08l-12.39-12.23c-5.41,5.04-15.49,7.67-22.95,7.67-14.74,0-24.85-7.27-26.39-18.98l-.12-.94h67.14c1.43-16.72-2.06-30.21-10.1-39.04ZM699.85,69.43l.3-1.05c3.05-10.83,12.32-17.3,24.8-17.3,13.28,0,21.7,6.35,23.08,17.42l.12.93h-48.29Z"/>
	<path stroke-width="0" fill="#ffffff" d="M776.83,78.69c0,27.07,17.56,44.56,44.73,44.56,12.79,0,22.64-3.93,31.85-12.74l-13.07-12.76c-4.77,4.45-11.25,6.8-18.78,6.8-12.53,0-25.17-8-25.17-25.87,0-15.19,10.73-26.22,25.52-26.22,6.08,0,12.29,2.35,17.16,6.47l12.28-12.92c-8.71-8.33-17.66-11.89-29.79-11.89-27.17,0-44.73,17.49-44.73,44.56Z"/>
	<path stroke-width="0" fill="#ffffff" d="M894.3,121.68c6.07-.16,10.93-1.13,16.56-3.31l-5.38-16.45c-3.18,1.44-6.76,2.28-9.77,2.28-7.49,0-11.96-4.86-11.96-13v-37.87h23.82v-16.6h-23.65V12.48l-19.56,2.08v76.64c0,10.27,2.78,18.16,8.27,23.44,5.13,4.94,12.62,7.36,21.65,7.03Z"/>
	<g>
	  <path stroke-width="0" fill="#ffffff" d="M936.03,0c-5.63,0-11.69,3.62-11.69,11.56s6.06,11.56,11.69,11.56,11.69-3.62,11.69-11.56-6.06-11.56-11.69-11.56Z"/>
	  <rect stroke-width="0" fill="#ffffff" x="926.26" y="36.21" width="19.56" height="84.42"/>
	</g>
	<polygon stroke-width="0" fill="#ffffff" points="1030.4 36.39 1018.79 64.57 1004.98 102.49 990.98 64.19 979.38 36.39 958.06 36.39 994.05 120.98 1015.91 120.98 1051.72 36.39 1030.4 36.39"/>
	<path stroke-width="0" fill="#ffffff" d="M1131.73,46.3c-7.36-8.08-18.58-12.35-32.45-12.35-26.76,0-44.73,17.7-44.73,44.04,0,27.7,17.74,44.91,46.3,44.91,13.93,0,27.51-4.99,35.69-13.08l-12.39-12.23c-5.41,5.04-15.49,7.67-22.95,7.67-14.74,0-24.85-7.27-26.38-18.98l-.12-.94h67.14c1.43-16.72-2.06-30.21-10.1-39.04ZM1074.89,69.43l.3-1.05c3.05-10.83,12.32-17.3,24.8-17.3,13.28,0,21.7,6.35,23.08,17.42l.12.93h-48.29Z"/>
  </g>
  <g>
	<path stroke-width="0" fill="#9f7fea" d="M67.79,31.58c-8.41,0-15.26,6.84-15.26,15.26v91.52c0,8.41,6.84,15.26,15.26,15.26s15.26-6.84,15.26-15.26V46.84c0-8.41-6.84-15.26-15.26-15.26Z"/>
	<path stroke-width="0" fill="#7629c8" d="M15.26,54.85c-8.41,0-15.26,6.84-15.26,15.26v43.87c0,8.41,6.84,15.26,15.26,15.26s15.26-6.84,15.26-15.26v-43.87c0-8.41-6.84-15.26-15.26-15.26Z"/>
	<path stroke-width="0" fill="#ad1bc1" d="M119.73,54.85c-8.41,0-15.26,6.84-15.26,15.26v43.87c0,8.41,6.84,15.26,15.26,15.26s15.26-6.84,15.26-15.26v-43.87c0-8.41-6.84-15.26-15.26-15.26Z"/>
	<path stroke-width="0" fill="#7629c8" d="M14.96,10.27C6.71,10.27,0,16.98,0,25.23s6.71,14.96,14.96,14.96,14.96-6.71,14.96-14.96-6.71-14.96-14.96-14.96Z"/>
	<path stroke-width="0" fill="#ad1bc1" d="M119.43,10.27c-8.25,0-14.96,6.71-14.96,14.96s6.71,14.96,14.96,14.96,14.96-6.71,14.96-14.96-6.71-14.96-14.96-14.96Z"/>
  </g>
</svg>